# xmcd
#
# Track frame offsets: 
#        183
#        20088
#        41628
#        72240
#        90893
#        103550
#        118778
#        147315
#        163665
#
# Disc length: 2528 seconds
#
# Revision: 0
# Processed by: cddbd v1.4PL0 Copyright (c) Steve Scherf et al.
# Submitted via: ExactAudioCopy v0.90b4
#
DISCID=7509de09
DTITLE=Rudy's Blues Band - Reason To Live
DYEAR=1900
DGENRE=Blues
TTITLE0=Money Money
TTITLE1=The Last Time Baby
TTITLE2=I Don't Pay No Money
TTITLE3=Reason To Live
TTITLE4=Get Back
TTITLE5=Tell Me Baby
TTITLE6=Had A Friend
TTITLE7=Hold On
TTITLE8=Boogie In Do
EXTD=
EXTT0=
EXTT1=
EXTT2=
EXTT3=
EXTT4=
EXTT5=
EXTT6=
EXTT7=
EXTT8=
PLAYORDER=
